<svg xmlns="http://www.w3.org/2000/svg" viewBox="0 0 512 512">
  <defs>
    <linearGradient id="bgGrad" x1="0%" y1="0%" x2="100%" y2="100%">
      <stop offset="0%" stop-color="#ffffff"/>
      <stop offset="100%" stop-color="#f0f0f0"/>
    </linearGradient>
    <linearGradient id="topFace" x1="0%" y1="0%" x2="100%" y2="100%">
      <stop offset="0%" stop-color="#FFA552"/>
      <stop offset="100%" stop-color="#F58025"/>
    </linearGradient>
    <linearGradient id="rightFace" x1="0%" y1="0%" x2="0%" y2="100%">
      <stop offset="0%" stop-color="#E0721F"/>
      <stop offset="100%" stop-color="#A64B0F"/>
    </linearGradient>
    <linearGradient id="leftFace" x1="100%" y1="0%" x2="0%" y2="100%">
      <stop offset="0%" stop-color="#C8631A"/>
      <stop offset="100%" stop-color="#8B4310"/>
    </linearGradient>
    <filter id="cubeShadow" x="-10%" y="-10%" width="120%" height="120%">
      <feGaussianBlur in="SourceAlpha" stdDeviation="6"/>
      <feOffset dx="0" dy="6"/>
      <feComponentTransfer><feFuncA type="linear" slope="0.18"/></feComponentTransfer>
      <feMerge><feMergeNode/><feMergeNode in="SourceGraphic"/></feMerge>
    </filter>
  </defs>

  <rect width="512" height="512" rx="108" fill="url(#bgGrad)"/>

  <g filter="url(#cubeShadow)">
    <polygon points="256,96 395,176 256,256 117,176" fill="url(#topFace)"/>
    <polygon points="395,176 395,336 256,416 256,256" fill="url(#rightFace)"/>
    <polygon points="117,176 256,256 256,416 117,336" fill="url(#leftFace)"/>

    <line x1="256" y1="96"  x2="256" y2="256" stroke="#FFFFFF" stroke-width="3" stroke-opacity="0.20"/>
    <line x1="395" y1="176" x2="256" y2="256" stroke="#FFFFFF" stroke-width="3" stroke-opacity="0.15"/>
    <line x1="117" y1="176" x2="256" y2="256" stroke="#FFFFFF" stroke-width="3" stroke-opacity="0.15"/>
    <line x1="256" y1="256" x2="256" y2="416" stroke="#000000" stroke-width="3" stroke-opacity="0.18"/>
  </g>
</svg>
